# xmcd
#
# Track frame offsets:
#       150
#       13207
#       27279
#       42380
#       53911
#       69223
#       98303
#       108390
#       124819
#       138715
#       147609
#       160490
#       173994
#       183823
#       197605
#
# Disc length: 2864 seconds
#
# Revision: 0
# Processed by: cddbd v1.5.1PL0 Copyright (c) Steve Scherf et al.
# Submitted via: WhereIsIt 3.62
#
DISCID=d30b2e0f
DTITLE=Ray Charles - The Very Best of Ray Charles
DYEAR=1900
DGENRE=
TTITLE0=I Got a Woman
TTITLE1=A Fool for You
TTITLE2=Drown in My Own Tears
TTITLE3=Hallelujah, I Love Her So
TTITLE4=Night Time Is the Right Time
TTITLE5=What'd I Say, Pts. 1 and 2
TTITLE6=Sticks and Stones
TTITLE7=Georgia on My Mind
TTITLE8=One Mint Julep
TTITLE9=Hit the Road Jack
TTITLE10=Unchain My Heart
TTITLE11=I Can't Stop Loving You
TTITLE12=You Are My Sunshine
TTITLE13=Busted
TTITLE14=Busted
EXTD=
EXTT0=
EXTT1=
EXTT2=
EXTT3=
EXTT4=
EXTT5=
EXTT6=
EXTT7=
EXTT8=
EXTT9=
EXTT10=
EXTT11=
EXTT12=
EXTT13=
EXTT14=
PLAYORDER=
